<svg xmlns="http://www.w3.org/2000/svg" viewBox="0 0 32 32" width="32" height="32">
  <defs>
    <linearGradient id="g" x1="0" y1="0" x2="1" y2="1">
      <stop offset="0%" stop-color="#6366f1"/>
      <stop offset="100%" stop-color="#8b5cf6"/>
    </linearGradient>
  </defs>
  <rect width="32" height="32" rx="8" fill="url(#g)"/>
  <g transform="translate(6,4)" fill="none" stroke="#fff" stroke-width="1.5" stroke-linecap="round" stroke-linejoin="round">
    <path d="M10 14 C10 14 12 8 12 5 C12 2 10 0 10 0 C10 0 8 2 8 5 C8 8 10 14 10 14Z" fill="#fff" opacity="0.9"/>
    <path d="M6.5 10.5 C6.5 10.5 4 9 2 9.5 C2 9.5 3 12 6.5 12.5"/>
    <path d="M13.5 10.5 C13.5 10.5 16 9 18 9.5 C18 9.5 17 12 13.5 12.5"/>
    <path d="M8 16 L6 22 L10 19 L14 22 L12 16"/>
    <circle cx="10" cy="7" r="1.5" fill="#6366f1" stroke="none"/>
  </g>
</svg>
